<svg width="1em" height="1em" viewBox="0 0 24 24" fill="currentColor">
  <path fill-rule="evenodd"
    d="M4 1a3 3 0 0 0-3 3v16a3 3 0 0 0 3 3h16a3 3 0 0 0 3-3V4a3 3 0 0 0-3-3Zm16 2H4a1 1 0 0 0-1 1v16a1 1 0 0 0 1 1h16a1 1 0 0 0 1-1V4a1 1 0 0 0-1-1" />
  <path
    d="M16.708 7.292c-.353-.354-.944-.47-1.416.001L12 10.586 8.708 7.293c-.945-.943-2.359.472-1.415 1.415L10.586 12l-3.293 3.292c-.943.945.472 2.359 1.415 1.415L12 13.414l3.292 3.293c.945.943 2.359-.472 1.415-1.415L13.414 12l3.293-3.292c.471-.473.355-1.063.001-1.416" />
</svg>