<svg viewBox="0 0 256 256" height="1em" width="1em" stroke-width="16" stroke-linejoin="round" stroke-linecap="round"
  stroke="currentColor" fill="none">
  <path d="m 112.00001,192.00036 79.99997,-3.5e-4" />
  <path
    d="m 96.000015,208 a 16,16 0 0 1 -16,-16 16,16 0 0 1 16,-16 16,16 0 0 1 16.000005,16 16,16 0 0 1 -16.000005,16 z" />
  <path d="M 64.000006,192.00001 H 79.999993" />
  <path d="M 143.99998,128.00035 64.000006,128" />
  <path d="m 159.99997,144 a 16,16 0 0 0 16,-16 16,16 0 0 0 -16,-16 16,16 0 0 0 -16,16 16,16 0 0 0 16,16 z" />
  <path d="M 191.99998,128 H 176" />
  <path d="m 112.00001,64.000353 79.99997,-3.52e-4" />
  <path
    d="m 96.000015,79.999996 a 16,16 0 0 1 -16,-16 16,16 0 0 1 16,-16 16,16 0 0 1 16.000005,16 16,16 0 0 1 -16.000005,16 z" />
  <path d="M 64.000006,64.000001 H 79.999993" />
  <path
    d="M 48.000002,16 H 208 c 17.728,0 32,14.272 32,32 v 160 c 0,17.728 -14.272,32 -32,32 H 48.000002 c -17.728,0 -32,-14.272 -32,-32 V 48 c 0,-17.728 14.272,-32 32,-32 z" />
</svg>